<svg width="420" height="780" viewBox="0 0 420 780" fill="none" xmlns="http://www.w3.org/2000/svg">
  <g stroke="#B8872F" stroke-width="1.6" stroke-linecap="round" stroke-linejoin="round" opacity="0.42">
    <g transform="translate(34 40)">
      <path d="M24 22H112"/>
      <path d="M32 22C30 34 24 38 24 52V98"/>
      <path d="M104 22C106 34 112 38 112 52V98"/>
      <path d="M24 52H112"/>
      <path d="M38 98C38 78 46 64 68 64C90 64 98 78 98 98"/>
      <path d="M38 98H98"/>
      <path d="M24 98H112"/>
      <path d="M16 54C5 60 5 92 20 102"/>
      <path d="M120 54C131 60 131 92 116 102"/>
      <path d="M24 102H112"/>
      <path d="M30 102V116H106V102"/>
      <path d="M17 58C10 66 10 84 19 90"/>
      <path d="M119 58C126 66 126 84 117 90"/>
    </g>

    <g transform="translate(176 36)">
      <path d="M20 30H118"/>
      <path d="M30 30C26 48 14 56 12 88"/>
      <path d="M108 30C112 48 124 56 126 88"/>
      <path d="M12 88C12 100 28 108 40 108H98C110 108 126 100 126 88"/>
      <path d="M34 108C36 124 32 138 24 154"/>
      <path d="M104 108C102 124 106 138 114 154"/>
      <path d="M24 154C32 160 106 160 114 154"/>
    </g>

    <g transform="translate(314 34)">
      <path d="M22 28H92"/>
      <path d="M22 28V212"/>
      <path d="M92 28V212"/>
      <path d="M22 28C32 18 48 18 57 24C66 18 82 18 92 28"/>
      <path d="M28 28V212"/>
      <path d="M42 28V212"/>
      <path d="M57 24V218"/>
      <path d="M72 28V212"/>
      <path d="M86 28V212"/>
      <path d="M22 212L57 220L92 212"/>
      <circle cx="22" cy="36" r="2.2"/>
      <circle cx="38" cy="36" r="2.2"/>
      <circle cx="57" cy="34" r="2.2"/>
      <circle cx="76" cy="36" r="2.2"/>
      <circle cx="92" cy="36" r="2.2"/>
      <circle cx="22" cy="212" r="2.2"/>
      <circle cx="38" cy="214" r="2.2"/>
      <circle cx="57" cy="216" r="2.2"/>
      <circle cx="76" cy="214" r="2.2"/>
      <circle cx="92" cy="212" r="2.2"/>
    </g>

    <g transform="translate(18 248)">
      <path d="M20 70H108"/>
      <path d="M28 70C20 86 20 106 20 126"/>
      <path d="M100 70C108 86 108 106 108 126"/>
      <path d="M20 126H108"/>
      <path d="M30 126C36 146 34 174 28 192"/>
      <path d="M98 126C92 146 94 174 100 192"/>
      <path d="M44 126V178"/>
      <path d="M84 126V178"/>
      <path d="M24 78C10 86 10 118 26 132"/>
      <path d="M112 78C126 86 126 118 110 132"/>
      <path d="M112 68L118 48H126V74"/>
    </g>

    <g transform="translate(150 242)">
      <path d="M30 54H136"/>
      <path d="M36 54V40H44V54"/>
      <path d="M122 54V40H130V54"/>
      <path d="M30 54V72H136V54"/>
      <path d="M20 72C10 82 12 116 26 128"/>
      <path d="M146 72C156 82 154 116 140 128"/>
      <path d="M40 72C34 84 32 98 32 116C32 128 42 138 56 138H110C124 138 134 128 134 116C134 98 132 84 126 72"/>
      <path d="M46 138C40 148 38 164 40 186"/>
      <path d="M120 138C126 148 128 164 126 186"/>
      <path d="M60 138V182C60 188 72 188 72 182V160"/>
      <path d="M100 138V182C100 188 88 188 88 182V168"/>
      <path d="M24 82C16 90 16 108 24 116"/>
      <path d="M142 82C150 90 150 108 142 116"/>
    </g>

    <g transform="translate(30 500)">
      <path d="M18 42C38 24 80 24 98 42"/>
      <path d="M98 42C120 42 132 58 136 72"/>
      <path d="M58 42C72 54 76 72 76 92"/>
      <path d="M86 42C106 52 120 70 120 94"/>
      <path d="M44 92H110"/>
      <path d="M52 92C54 114 48 144 36 170"/>
      <path d="M102 92C104 114 110 144 122 170"/>
      <path d="M60 92V146"/>
      <path d="M92 92V146"/>
    </g>

    <g transform="translate(184 556)">
      <path d="M24 32H126"/>
      <path d="M30 32V42H120V32"/>
      <path d="M18 42H132"/>
      <path d="M12 54H138"/>
      <path d="M22 54C16 70 14 84 14 104C14 126 32 138 50 138H100C118 138 136 126 136 104C136 84 134 70 128 54"/>
      <path d="M24 86C14 82 6 92 8 108C10 124 22 128 30 124"/>
      <path d="M126 86C136 82 144 92 142 108C140 124 128 128 120 124"/>
      <path d="M50 138C46 150 44 164 44 182"/>
      <path d="M100 138C104 150 106 164 106 182"/>
      <path d="M36 182H114"/>
    </g>

    <g transform="translate(320 498)">
      <path d="M60 26C48 40 38 58 38 88V126C38 156 48 174 60 190"/>
      <path d="M60 26C72 40 82 58 82 88V126C82 156 72 174 60 190"/>
      <path d="M38 126C42 148 50 164 60 172C70 164 78 148 82 126"/>
      <path d="M50 190H70"/>
    </g>
  </g>
</svg>
